<svg width="1920" height="91" viewBox="0 0 1920 91" fill="none" xmlns="http://www.w3.org/2000/svg">
<path fill-rule="evenodd" clip-rule="evenodd" d="M1920 0H0V18.9196C111.05 34.1651 241.972 47.6457 367.873 58.4775C523.174 71.8388 677.452 74.5202 832.604 77.2169C892.861 78.2642 953.25 79.3137 1013.88 80.9921C1054.07 82.1047 1095.12 83.5204 1136.12 84.9344C1259.95 89.2055 1383.34 93.461 1481.25 89.2979C1573.15 85.3902 1616.54 74.0616 1660.02 62.7113C1674.58 58.9113 1689.14 55.1089 1705.54 51.5817C1729.84 46.3552 1744.66 40.2435 1759.41 34.1618C1778.86 26.1418 1798.19 18.1741 1838.95 12.3575C1861.76 9.1024 1889.4 6.38712 1920 4.01445V0Z" fill="#F0F0FE"/>
</svg>
